%TF.GenerationSoftware,KiCad,Pcbnew,(6.0.10)*%
%TF.CreationDate,2023-02-17T09:19:46-08:00*%
%TF.ProjectId,exerciseII,65786572-6369-4736-9549-492e6b696361,rev?*%
%TF.SameCoordinates,Original*%
%TF.FileFunction,Copper,L1,Top*%
%TF.FilePolarity,Positive*%
%FSLAX46Y46*%
G04 Gerber Fmt 4.6, Leading zero omitted, Abs format (unit mm)*
G04 Created by KiCad (PCBNEW (6.0.10)) date 2023-02-17 09:19:46*
%MOMM*%
%LPD*%
G01*
G04 APERTURE LIST*
G04 Aperture macros list*
%AMRoundRect*
0 Rectangle with rounded corners*
0 $1 Rounding radius*
0 $2 $3 $4 $5 $6 $7 $8 $9 X,Y pos of 4 corners*
0 Add a 4 corners polygon primitive as box body*
4,1,4,$2,$3,$4,$5,$6,$7,$8,$9,$2,$3,0*
0 Add four circle primitives for the rounded corners*
1,1,$1+$1,$2,$3*
1,1,$1+$1,$4,$5*
1,1,$1+$1,$6,$7*
1,1,$1+$1,$8,$9*
0 Add four rect primitives between the rounded corners*
20,1,$1+$1,$2,$3,$4,$5,0*
20,1,$1+$1,$4,$5,$6,$7,0*
20,1,$1+$1,$6,$7,$8,$9,0*
20,1,$1+$1,$8,$9,$2,$3,0*%
G04 Aperture macros list end*
%TA.AperFunction,ComponentPad*%
%ADD10R,3.000000X3.000000*%
%TD*%
%TA.AperFunction,ComponentPad*%
%ADD11C,3.000000*%
%TD*%
%TA.AperFunction,SMDPad,CuDef*%
%ADD12RoundRect,0.250001X-0.462499X-0.624999X0.462499X-0.624999X0.462499X0.624999X-0.462499X0.624999X0*%
%TD*%
%TA.AperFunction,SMDPad,CuDef*%
%ADD13RoundRect,0.250000X-0.350000X-0.450000X0.350000X-0.450000X0.350000X0.450000X-0.350000X0.450000X0*%
%TD*%
%TA.AperFunction,SMDPad,CuDef*%
%ADD14RoundRect,0.250000X0.350000X0.450000X-0.350000X0.450000X-0.350000X-0.450000X0.350000X-0.450000X0*%
%TD*%
%TA.AperFunction,SMDPad,CuDef*%
%ADD15RoundRect,0.150000X-0.825000X-0.150000X0.825000X-0.150000X0.825000X0.150000X-0.825000X0.150000X0*%
%TD*%
%TA.AperFunction,SMDPad,CuDef*%
%ADD16RoundRect,0.250000X0.337500X0.475000X-0.337500X0.475000X-0.337500X-0.475000X0.337500X-0.475000X0*%
%TD*%
%TA.AperFunction,SMDPad,CuDef*%
%ADD17RoundRect,0.250000X-0.537500X-0.425000X0.537500X-0.425000X0.537500X0.425000X-0.537500X0.425000X0*%
%TD*%
%TA.AperFunction,ViaPad*%
%ADD18C,0.800000*%
%TD*%
%TA.AperFunction,Conductor*%
%ADD19C,0.250000*%
%TD*%
G04 APERTURE END LIST*
D10*
%TO.P,J1,1,Pin_1*%
%TO.N,+9V*%
X25590000Y-24380000D03*
D11*
%TO.P,J1,2,Pin_2*%
%TO.N,GND*%
X30670000Y-24380000D03*
%TD*%
D12*
%TO.P,D2,1,K*%
%TO.N,GND*%
X43887500Y-21550000D03*
%TO.P,D2,2,A*%
%TO.N,Net-(D2-Pad2)*%
X46862500Y-21550000D03*
%TD*%
D13*
%TO.P,R1,1*%
%TO.N,+9V*%
X28480000Y-33530000D03*
%TO.P,R1,2*%
%TO.N,/Pin_7*%
X30480000Y-33530000D03*
%TD*%
D14*
%TO.P,R3,1*%
%TO.N,/Pin_7*%
X43270000Y-27780000D03*
%TO.P,R3,2*%
%TO.N,/Pin_2*%
X41270000Y-27780000D03*
%TD*%
%TO.P,R4,1*%
%TO.N,/Pin_3*%
X25730000Y-33530000D03*
%TO.P,R4,2*%
%TO.N,Net-(D2-Pad2)*%
X23730000Y-33530000D03*
%TD*%
D13*
%TO.P,R2,1*%
%TO.N,Net-(D1-Pad1)*%
X34590000Y-31170000D03*
%TO.P,R2,2*%
%TO.N,/Pin_3*%
X36590000Y-31170000D03*
%TD*%
D15*
%TO.P,U1,1,GND*%
%TO.N,GND*%
X35655000Y-21175000D03*
%TO.P,U1,2,TR*%
%TO.N,/Pin_2*%
X35655000Y-22445000D03*
%TO.P,U1,3,Q*%
%TO.N,/Pin_3*%
X35655000Y-23715000D03*
%TO.P,U1,4,R*%
%TO.N,+9V*%
X35655000Y-24985000D03*
%TO.P,U1,5,CV*%
%TO.N,Net-(C2-Pad1)*%
X40605000Y-24985000D03*
%TO.P,U1,6,THR*%
%TO.N,/Pin_2*%
X40605000Y-23715000D03*
%TO.P,U1,7,DIS*%
%TO.N,/Pin_7*%
X40605000Y-22445000D03*
%TO.P,U1,8,VCC*%
%TO.N,+9V*%
X40605000Y-21175000D03*
%TD*%
D16*
%TO.P,C2,1*%
%TO.N,Net-(C2-Pad1)*%
X31847500Y-30410000D03*
%TO.P,C2,2*%
%TO.N,GND*%
X29772500Y-30410000D03*
%TD*%
D12*
%TO.P,D1,1,K*%
%TO.N,Net-(D1-Pad1)*%
X35437500Y-28000000D03*
%TO.P,D1,2,A*%
%TO.N,+9V*%
X38412500Y-28000000D03*
%TD*%
D17*
%TO.P,C1,1*%
%TO.N,/Pin_2*%
X23962500Y-30480000D03*
%TO.P,C1,2*%
%TO.N,GND*%
X26837500Y-30480000D03*
%TD*%
D18*
%TO.N,+9V*%
X30480000Y-35560000D03*
X40640000Y-15240000D03*
X35655000Y-24985000D03*
%TO.N,/Pin_3*%
X25400000Y-40640000D03*
X40640000Y-35560000D03*
%TD*%
D19*
%TO.N,/Pin_2*%
X43310000Y-23715000D02*
X44995000Y-25400000D01*
X27067424Y-27375076D02*
X23962500Y-30480000D01*
X38725000Y-22445000D02*
X39995000Y-23715000D01*
X35278249Y-22445000D02*
X30348173Y-27375076D01*
X43650000Y-25400000D02*
X41270000Y-27780000D01*
X40605000Y-23715000D02*
X43310000Y-23715000D01*
X35655000Y-22445000D02*
X35278249Y-22445000D01*
X35655000Y-22445000D02*
X35185940Y-22445000D01*
X30348173Y-27375076D02*
X27067424Y-27375076D01*
X35655000Y-22445000D02*
X38725000Y-22445000D01*
X39995000Y-23715000D02*
X40605000Y-23715000D01*
X44995000Y-25400000D02*
X43650000Y-25400000D01*
%TO.N,GND*%
X23186827Y-31480000D02*
X25837500Y-31480000D01*
X29702500Y-30480000D02*
X29772500Y-30410000D01*
X35560000Y-20320000D02*
X35655000Y-20415000D01*
X34730000Y-20320000D02*
X35560000Y-20320000D01*
X35655000Y-21175000D02*
X36280000Y-21800000D01*
X35655000Y-20415000D02*
X35655000Y-21175000D01*
X22850000Y-22870000D02*
X22850000Y-31143173D01*
X43637500Y-21800000D02*
X43887500Y-21550000D01*
X36280000Y-21800000D02*
X43637500Y-21800000D01*
X28845000Y-22555000D02*
X23165000Y-22555000D01*
X30670000Y-24380000D02*
X34730000Y-20320000D01*
X30670000Y-24380000D02*
X28845000Y-22555000D01*
X25837500Y-31480000D02*
X26837500Y-30480000D01*
X23165000Y-22555000D02*
X22850000Y-22870000D01*
X26837500Y-30480000D02*
X29702500Y-30480000D01*
X22850000Y-31143173D02*
X23186827Y-31480000D01*
%TO.N,Net-(C2-Pad1)*%
X39450000Y-26140000D02*
X39450000Y-29290000D01*
X40640000Y-40640000D02*
X31847500Y-31847500D01*
X45720000Y-35560000D02*
X40640000Y-40640000D01*
X39450000Y-29290000D02*
X45720000Y-35560000D01*
X40605000Y-24985000D02*
X39450000Y-26140000D01*
X31847500Y-31847500D02*
X31847500Y-30410000D01*
%TO.N,Net-(D1-Pad1)*%
X34590000Y-31170000D02*
X35437500Y-30322500D01*
X35437500Y-30322500D02*
X35437500Y-28000000D01*
%TO.N,+9V*%
X28480000Y-33560000D02*
X30480000Y-35560000D01*
X28480000Y-33530000D02*
X28480000Y-33560000D01*
X40640000Y-21140000D02*
X40605000Y-21175000D01*
X40640000Y-15240000D02*
X40640000Y-21140000D01*
X35655000Y-25242500D02*
X38412500Y-28000000D01*
X35655000Y-24985000D02*
X35655000Y-25242500D01*
%TO.N,Net-(D2-Pad2)*%
X46862500Y-35690292D02*
X46862500Y-21550000D01*
X25274695Y-41540000D02*
X41012792Y-41540000D01*
X41012792Y-41540000D02*
X46862500Y-35690292D01*
X23730000Y-33530000D02*
X23730000Y-39995305D01*
X23730000Y-39995305D02*
X25274695Y-41540000D01*
%TO.N,/Pin_7*%
X46170000Y-35746396D02*
X46170000Y-30680000D01*
X40826396Y-41090000D02*
X46170000Y-35746396D01*
X40605000Y-22445000D02*
X42764998Y-22445000D01*
X30480000Y-33530000D02*
X38040000Y-41090000D01*
X45720000Y-25400000D02*
X43340000Y-27780000D01*
X42764998Y-22445000D02*
X45720000Y-25400000D01*
X38040000Y-41090000D02*
X40826396Y-41090000D01*
X43340000Y-27780000D02*
X43270000Y-27780000D01*
X46170000Y-30680000D02*
X43270000Y-27780000D01*
%TO.N,/Pin_3*%
X36590000Y-26813896D02*
X36590000Y-31170000D01*
X25730000Y-33530000D02*
X25730000Y-40310000D01*
X36590000Y-31510000D02*
X40640000Y-35560000D01*
X36590000Y-31170000D02*
X36590000Y-31510000D01*
X34355000Y-24638249D02*
X34355000Y-25331751D01*
X34733249Y-25710000D02*
X35486104Y-25710000D01*
X34355000Y-25331751D02*
X34733249Y-25710000D01*
X35486104Y-25710000D02*
X36590000Y-26813896D01*
X35278249Y-23715000D02*
X34355000Y-24638249D01*
X25730000Y-40310000D02*
X25400000Y-40640000D01*
X35655000Y-23715000D02*
X35278249Y-23715000D01*
%TD*%
M02*
